<svg version="1.1" viewBox="0.0 0.0 959.8792650918635 720.5590551181102" fill="none" stroke="none" stroke-linecap="square" stroke-miterlimit="10" xmlns:xlink="http://www.w3.org/1999/xlink" xmlns="http://www.w3.org/2000/svg"><clipPath id="p.0"><path d="m0 0l959.8793 0l0 720.5591l-959.8793 0l0 -720.5591z" clip-rule="nonzero"/></clipPath><g clip-path="url(#p.0)"><path fill="#000000" fill-opacity="0.0" d="m0 0l959.8793 0l0 720.5591l-959.8793 0z" fill-rule="evenodd"/><path fill="#8becff" d="m323.3472 624.7624l-323.3792 -19.80957l0 -99.048035l0 -9.904785l960.032 0l0 89.14319l0 79.2384l-293.06238 -19.80957z" fill-rule="evenodd"/><path fill="#d68aff" d="m666.9376 644.572l-151.58405 -29.714417l-515.38556 -108.95282l0 -9.904785l960.032 0l0 89.14319l0 79.2384l0 39.6192z" fill-rule="evenodd"/><path fill="#80c2ff" d="m-0.032 644.572l0 -39.6192l0 -108.95282l960.032 0l0 89.14319l-444.64642 29.714417l-192.00638 9.904785z" fill-rule="evenodd"/><path fill="#45b3ff" d="m-0.032 604.9528l0 -108.95282l960.032 0l0 89.14319l-444.64642 29.714417l-192.00638 9.904785z" fill-rule="evenodd"/><path fill="#747fff" d="m666.9376 644.572l-151.58405 -29.714417l-515.38556 -108.95282l0 -9.904785l960.032 0l0 89.14319l0 79.2384z" fill-rule="evenodd"/><path fill="#0969e2" d="m0 0l960.0 0l0 585.14435l-444.6457 29.713928l-515.3858 -108.95276z" fill-rule="evenodd"/></g></svg>
