<!-- Generated by IcoMoon.io -->
<svg version="1.1" xmlns="http://www.w3.org/2000/svg" width="1248" height="1024" viewBox="0 0 1248 1024">
<title></title>
<g id="icomoon-ignore">
</g>
<path d="M48 800h560v48c0 8.832 7.168 16 16 16s16-7.168 16-16v-48h560c26.464 0 48-21.536 48-48v-704c0-26.464-21.536-48-48-48h-1152c-26.464 0-48 21.536-48 48v704c0 26.464 21.536 48 48 48zM32 48c0-8.832 7.168-16 16-16h1152c8.832 0 16 7.168 16 16v704c0 8.832-7.168 16-16 16h-1152c-8.832 0-16-7.168-16-16v-704zM112 704h1024c8.832 0 16-7.168 16-16v-576c0-8.832-7.168-16-16-16h-1024c-8.832 0-16 7.168-16 16v576c0 8.832 7.168 16 16 16zM128 128h992v544h-992v-544zM448 896c-36.48 0-64 27.52-64 64v48c0 8.832 7.168 16 16 16h448c8.832 0 16-7.168 16-16v-45.6c0-37.216-28.096-66.4-64-66.4h-352zM832 962.4v29.6h-416v-32c0-18.848 13.152-32 32-32h352c18.24 0 32 14.784 32 34.4z"></path>
</svg>
