<!-- Generated by IcoMoon.io -->
<svg version="1.1" xmlns="http://www.w3.org/2000/svg" width="960" height="1024" viewBox="0 0 960 1024">
<title></title>
<g id="icomoon-ignore">
</g>
<path d="M18.144 768c25.12 43.52 81.536 66.528 163.104 66.528 0 0 0 0 0.032 0 36.672 0 77.024-5.152 119.104-14.016 40.512 124.128 105.184 203.488 179.616 203.488s139.104-79.36 179.616-203.488c42.112 8.832 82.464 14.016 119.136 14.016 0 0 0 0 0 0 81.536 0 137.952-23.008 163.072-66.528 32.512-56.352 3.744-151.040-94.912-256 98.656-104.96 127.424-199.648 94.912-256-25.12-43.52-81.536-66.528-163.104-66.528-36.672 0-77.056 5.152-119.136 14.016-40.48-124.128-105.152-203.488-179.584-203.488s-139.104 79.36-179.616 203.488c-42.112-8.864-82.496-14.016-119.136-14.016-81.568 0-137.984 23.008-163.104 66.528-32.512 56.352-3.744 151.040 94.912 256-98.656 104.96-127.456 199.648-94.912 256zM480 992c-58.848 0-112.512-70.368-148.064-178.528 48.096-12.192 98.112-29.44 148.064-51.168 49.952 21.728 99.968 38.976 148.064 51.168-35.552 108.16-89.216 178.528-148.064 178.528zM288 512c0-37.248 1.984-73.504 5.376-108.576 28.576-19.904 58.784-39.296 90.624-57.696 31.488-18.176 63.712-34.464 96-49.056 32.288 14.56 64.512 30.848 96 49.056 31.84 18.368 62.016 37.76 90.624 57.696 3.392 35.072 5.376 71.328 5.376 108.576s-1.984 73.504-5.376 108.576c-28.576 19.904-58.784 39.296-90.624 57.696-31.488 18.176-63.712 34.464-96 49.056-32.288-14.56-64.512-30.848-96-49.056-31.84-18.368-62.016-37.76-90.624-57.696-3.392-35.072-5.376-71.328-5.376-108.576zM259.136 595.936c-36.672-27.552-69.888-55.84-98.752-83.936 28.864-28.096 62.080-56.384 98.752-83.936-1.888 27.328-3.136 55.2-3.136 83.936s1.248 56.608 3.136 83.936zM298.272 361.152c5.888-42.912 14.144-83.328 24.448-120.128 38.24 9.632 77.92 22.944 117.824 39.008-24.384 11.808-48.704 24.224-72.544 37.984-24.736 14.304-47.616 28.704-69.728 43.136zM519.424 280.032c39.904-16.064 79.584-29.376 117.824-39.008 10.304 36.8 18.56 77.216 24.448 120.128-22.080-14.432-44.992-28.832-69.728-43.136-23.808-13.76-48.128-26.176-72.544-37.984zM700.864 428.064c36.704 27.552 69.888 55.808 98.752 83.936-28.864 28.096-62.080 56.384-98.752 83.936 1.888-27.328 3.136-55.2 3.136-83.936s-1.248-56.608-3.136-83.936zM661.728 662.848c-5.888 42.912-14.144 83.328-24.448 120.128-38.24-9.632-77.92-22.944-117.824-39.008 24.416-11.776 48.736-24.224 72.576-37.984 24.704-14.304 47.584-28.704 69.696-43.136zM368 705.984c23.84 13.76 48.16 26.208 72.576 37.984-39.904 16.064-79.584 29.376-117.824 39.008-10.304-36.8-18.56-77.216-24.448-120.128 22.080 14.432 44.96 28.832 69.696 43.136zM914.144 752c-18.816 32.608-66.88 50.528-135.36 50.528-33.792 0-70.976-4.672-109.824-12.64 12.672-45.568 22.176-96.256 28.064-150.656 49.472-34.688 91.232-69.376 126.080-103.328 81.024 85.824 119.232 167.232 91.040 216.096zM778.752 221.472c68.48 0 116.576 17.952 135.36 50.528 28.224 48.864-10.016 130.272-91.040 216.096-34.848-33.92-76.608-68.64-126.080-103.328-5.888-54.4-15.392-105.088-28.064-150.656 38.848-7.968 76.064-12.64 109.824-12.64zM480 32c58.848 0 112.512 70.368 148.064 178.528-48.096 12.192-98.112 29.44-148.064 51.168-49.952-21.728-99.968-38.976-148.064-51.168 35.552-108.16 89.216-178.528 148.064-178.528zM45.856 272c18.816-32.608 66.88-50.528 135.36-50.528 33.792 0 70.976 4.672 109.824 12.64-12.672 45.568-22.176 96.256-28.064 150.656-49.472 34.688-91.232 69.376-126.080 103.328-81.024-85.824-119.232-167.232-91.040-216.096zM136.896 535.904c34.848 33.92 76.608 68.64 126.080 103.328 5.888 54.4 15.392 105.088 28.064 150.656-38.816 7.968-76 12.64-109.792 12.64 0 0-0.032 0-0.032 0-68.48 0-116.576-17.952-135.36-50.528-28.192-48.864 10.016-130.272 91.040-216.096zM480 592c44.096 0 80-35.872 80-80s-35.904-80-80-80-80 35.872-80 80 35.904 80 80 80zM480 464c26.464 0 48 21.536 48 48s-21.536 48-48 48-48-21.536-48-48 21.536-48 48-48z"></path>
</svg>
