<!-- Generated by IcoMoon.io -->
<svg version="1.1" xmlns="http://www.w3.org/2000/svg" width="1344" height="1024" viewBox="0 0 1344 1024">
<title></title>
<g id="icomoon-ignore">
</g>
<path d="M112 832c8.832 0 16-7.168 16-16v-752c0-19.136 12.864-32 32-32h1024c18.24 0 32 14.976 32 34.848v749.152c0 8.832 7.168 16 16 16s16-7.168 16-16v-749.152c0-37.504-28.096-66.848-64-66.848h-1024c-37.088 0-64 26.912-64 64v752c0 8.832 7.168 16 16 16zM208 96c-8.832 0-16 7.168-16 16v704c0 8.832 7.168 16 16 16h928c8.832 0 16-7.168 16-16v-704c0-8.832-7.168-16-16-16h-928zM1120 800h-896v-672h896v672zM1328 896h-1312c-8.832 0-16 7.168-16 16v37.6c0 38.336 45.056 74.4 80 74.4h1184c36.64 0 80-43.36 80-80v-32c0-8.832-7.168-16-16-16zM1312 944c0 18.848-29.152 48-48 48h-1184c-20.192 0-48-24.576-48-42.4v-21.6h1280v16z"></path>
</svg>
