<!-- Generated by IcoMoon.io -->
<svg version="1.1" xmlns="http://www.w3.org/2000/svg" width="608" height="1024" viewBox="0 0 608 1024">
<title></title>
<g id="icomoon-ignore">
</g>
<path d="M48 1024h512c26.464 0 48-21.536 48-48v-928c0-26.464-21.536-48-48-48h-512c-26.464 0-48 21.536-48 48v928c0 26.464 21.536 48 48 48zM32 48c0-8.832 7.168-16 16-16h512c8.832 0 16 7.168 16 16v928c0 8.832-7.168 16-16 16h-512c-8.832 0-16-7.168-16-16v-928zM80 864h448c8.832 0 16-7.168 16-16v-672c0-8.832-7.168-16-16-16h-448c-8.832 0-16 7.168-16 16v672c0 8.832 7.168 16 16 16zM96 192h416v640h-416v-640zM288 928c0 17.673 14.327 32 32 32s32-14.327 32-32c0-17.673-14.327-32-32-32s-32 14.327-32 32zM240 128h128c8.832 0 16-7.168 16-16s-7.168-16-16-16h-128c-8.832 0-16 7.168-16 16s7.168 16 16 16z"></path>
</svg>
