<!-- Generated by IcoMoon.io -->
<svg version="1.1" xmlns="http://www.w3.org/2000/svg" width="992" height="1024" viewBox="0 0 992 1024">
<title></title>
<g id="icomoon-ignore">
</g>
<path d="M16 96c-8.832 0-16 7.168-16 16v544c0 26.464 21.536 48 48 48h896c26.464 0 48-21.536 48-48v-544c0-8.832-7.168-16-16-16s-16 7.168-16 16v544c0 8.832-7.168 16-16 16h-896c-8.832 0-16-7.168-16-16v-544c0-8.832-7.168-16-16-16zM1040 0h-1088c-8.832 0-16 7.168-16 16s7.168 16 16 16h1088c8.832 0 16-7.168 16-16s-7.168-16-16-16zM379.328 260.672c-5.856-5.856-15.2-6.272-21.568-0.992l-192 160c-6.784 5.664-7.712 15.744-2.048 22.56 5.664 6.784 15.712 7.712 22.56 2.048l180.768-150.656 181.664 181.664c3.104 3.136 7.2 4.704 11.296 4.704s8.192-1.568 11.328-4.672l228.672-228.704v121.376c0 8.832 7.168 16 16 16s16-7.168 16-16v-160c0-2.080-0.416-4.16-1.216-6.112-1.632-3.904-4.736-7.040-8.672-8.672-1.952-0.8-4.032-1.216-6.112-1.216h-160c-8.832 0-16 7.168-16 16s7.168 16 16 16h121.376l-217.376 217.376-180.672-180.704zM257.824 1015.424c4.096 7.84 13.76 10.848 21.6 6.752l216.576-113.44 216.576 113.44c2.368 1.248 4.896 1.824 7.424 1.824 5.76 0 11.328-3.136 14.176-8.576 4.096-7.84 1.088-17.504-6.752-21.6l-220.576-115.52c3.136-2.912 5.152-7.008 5.152-11.648v-82.656c0-8.832-7.168-16-16-16s-16 7.168-16 16v82.656c0 4.608 2.016 8.704 5.152 11.616l-220.576 115.52c-7.84 4.128-10.848 13.792-6.752 21.632z"></path>
</svg>
