<svg version="1.1" viewBox="0.0 0.0 959.6824146981627 217.0" fill="none" stroke="none" stroke-linecap="square" stroke-miterlimit="10" xmlns:xlink="http://www.w3.org/1999/xlink" xmlns="http://www.w3.org/2000/svg"><clipPath id="p.0"><path d="m0 0l959.68243 0l0 217.0l-959.68243 0l0 -217.0z" clip-rule="nonzero"/></clipPath><g clip-path="url(#p.0)"><path fill="#000000" fill-opacity="0.0" d="m0 0l959.68243 0l0 217.0l-959.68243 0z" fill-rule="evenodd"/><path fill="#8becff" d="m323.3472 128.7624l-323.3792 -19.809608l0 -99.048l0 -9.9048l960.032 0l0 89.1432l0 79.2384l-293.06238 -19.8096z" fill-rule="evenodd"/><path fill="#d68aff" d="m666.9376 148.572l-151.58405 -29.714409l-515.38556 -108.9528l0 -9.9048l960.032 0l0 89.1432l0 79.2384l0 39.619186z" fill-rule="evenodd"/><path fill="#80c2ff" d="m-0.032 148.572l0 -39.61921l0 -108.9528l960.032 0l0 89.1432l-444.64642 29.714394l-192.00638 9.904808z" fill-rule="evenodd"/><path fill="#45b3ff" d="m-0.032 108.9528l0 -108.9528l960.032 0l0 89.1432l-444.64642 29.714394l-192.00638 9.904808z" fill-rule="evenodd"/><path fill="#747fff" d="m666.9376 148.572l-151.58405 -29.714409l-515.38556 -108.9528l0 -9.9048l960.032 0l0 89.1432l0 79.2384z" fill-rule="evenodd"/><path fill="#0969e2" d="m0 0l960.0 0l0 89.144356l-444.6457 29.713913l-515.3858 -108.95276z" fill-rule="evenodd"/></g></svg>
