<!-- Generated by IcoMoon.io -->
<svg version="1.1" xmlns="http://www.w3.org/2000/svg" width="1184" height="1024" viewBox="0 0 1184 1024">
<title></title>
<g id="icomoon-ignore">
</g>
<path d="M240 0h-192c-27.808 0-48 20.192-48 48v928c0 27.808 20.192 48 48 48h1088c27.808 0 48-20.192 48-48v-928c0-27.808-20.192-48-48-48h-896zM32 976v-928c0-10.016 5.984-16 16-16h176v960h-176c-10.016 0-16-5.984-16-16zM256 992v-960h672v960h-672zM1152 48v928c0 10.016-5.984 16-16 16h-176v-960h176c10.016 0 16 5.984 16 16zM472.864 322.688c-4.896-3.264-11.232-3.584-16.448-0.8-5.152 2.784-8.416 8.192-8.416 14.112v384c0 5.92 3.264 11.328 8.448 14.112 2.368 1.248 4.96 1.888 7.552 1.888 3.104 0 6.176-0.896 8.864-2.688l288-192c4.448-2.976 7.136-7.968 7.136-13.312s-2.688-10.336-7.136-13.312l-288-192zM480 690.112v-324.224l243.168 162.112-243.168 162.112zM160 256h-64c-8.832 0-16 7.168-16 16s7.168 16 16 16h64c8.832 0 16-7.168 16-16s-7.168-16-16-16zM96 160h64c8.832 0 16-7.168 16-16s-7.168-16-16-16h-64c-8.832 0-16 7.168-16 16s7.168 16 16 16zM160 384h-64c-8.832 0-16 7.168-16 16s7.168 16 16 16h64c8.832 0 16-7.168 16-16s-7.168-16-16-16zM160 512h-64c-8.832 0-16 7.168-16 16s7.168 16 16 16h64c8.832 0 16-7.168 16-16s-7.168-16-16-16zM160 640h-64c-8.832 0-16 7.168-16 16s7.168 16 16 16h64c8.832 0 16-7.168 16-16s-7.168-16-16-16zM160 768h-64c-8.832 0-16 7.168-16 16s7.168 16 16 16h64c8.832 0 16-7.168 16-16s-7.168-16-16-16zM160 896h-64c-8.832 0-16 7.168-16 16s7.168 16 16 16h64c8.832 0 16-7.168 16-16s-7.168-16-16-16zM1024 288h64c8.832 0 16-7.168 16-16s-7.168-16-16-16h-64c-8.832 0-16 7.168-16 16s7.168 16 16 16zM1024 160h64c8.832 0 16-7.168 16-16s-7.168-16-16-16h-64c-8.832 0-16 7.168-16 16s7.168 16 16 16zM1024 416h64c8.832 0 16-7.168 16-16s-7.168-16-16-16h-64c-8.832 0-16 7.168-16 16s7.168 16 16 16zM1024 544h64c8.832 0 16-7.168 16-16s-7.168-16-16-16h-64c-8.832 0-16 7.168-16 16s7.168 16 16 16zM1024 672h64c8.832 0 16-7.168 16-16s-7.168-16-16-16h-64c-8.832 0-16 7.168-16 16s7.168 16 16 16zM1024 800h64c8.832 0 16-7.168 16-16s-7.168-16-16-16h-64c-8.832 0-16 7.168-16 16s7.168 16 16 16zM1088 896h-64c-8.832 0-16 7.168-16 16s7.168 16 16 16h64c8.832 0 16-7.168 16-16s-7.168-16-16-16z"></path>
</svg>
